<svg width="26" height="26" viewBox="0 0 26 26" fill="none" xmlns="http://www.w3.org/2000/svg">
<path fill-rule="evenodd" clip-rule="evenodd" d="M26 3C26 4.30622 25.1652 5.41746 24 5.82929V20.1707C25.1652 20.5825 26 21.6938 26 23C26 24.6569 24.6569 26 23 26C21.3431 26 20 24.6569 20 23C20 21.3431 21.3431 20 23 20V6C21.3431 6 20 4.65685 20 3H6C6 4.65685 4.65685 6 3 6V20C4.65685 20 6 21.3431 6 23C6 24.6569 4.65685 26 3 26C1.34315 26 0 24.6569 0 23C0 21.6938 0.834808 20.5825 2 20.1707V5.82929C0.834808 5.41746 0 4.30622 0 3V2H0.170706C0.582542 0.834808 1.69378 0 3 0C4.30622 0 5.41746 0.834808 5.82929 2H20.1707C20.5825 0.834808 21.6938 0 23 0C24.6569 0 26 1.34315 26 3Z" fill="white"/>
</svg>
