<svg width="26" height="26" viewBox="0 0 26 26" fill="none" xmlns="http://www.w3.org/2000/svg">
<path fill-rule="evenodd" clip-rule="evenodd" d="M4.36056 5.67446C3.95219 5.88262 3.4898 6 3 6V20C3.72295 20 4.38617 20.2557 4.90414 20.6816L12.2888 13.297L4.36056 5.67446ZM2 20.1707C0.834808 20.5825 0 21.6938 0 23C0 24.6569 1.34315 26 3 26C4.65685 26 6 24.6569 6 23C6 22.4278 5.83982 21.8931 5.56187 21.4381L13.0098 13.9902L20.5622 21.2512C20.2083 21.7435 20 22.3474 20 23C20 24.6569 21.3431 26 23 26C24.6569 26 26 24.6569 26 23C26 21.3431 24.6569 20 23 20C22.3568 20 21.7609 20.2024 21.2725 20.547L13.7171 13.2829L21.4381 5.56187C21.8931 5.83982 22.4278 6 23 6C24.6569 6 26 4.65685 26 3C26 1.34315 24.6569 0 23 0C21.3431 0 20 1.34315 20 3C20 3.72295 20.2557 4.38617 20.6816 4.90414L12.9961 12.5897L5.173 5.06836C5.68544 4.53015 6 3.80181 6 3C6 1.34315 4.65685 0 3 0C1.34315 0 0 1.34315 0 3C0 4.30622 0.834808 5.41746 2 5.82929V20.1707Z" fill="white"/>
</svg>
