<svg width="22" height="22" viewBox="0 0 22 22" fill="none" xmlns="http://www.w3.org/2000/svg">
<path d="M21.7312 20.4353L15.475 14.179C16.6868 12.6821 17.4165 10.78 17.4165 8.70835C17.4165 3.90685 13.5097 0 8.70821 0C3.90676 0 0 3.9068 0 8.7083C0 13.5098 3.90681 17.4167 8.70825 17.4167C10.7799 17.4167 12.682 16.687 14.1788 15.4752L20.435 21.7314C20.6138 21.9102 20.8484 22 21.0831 22C21.3178 22 21.5525 21.9102 21.7312 21.7314C22.0896 21.373 22.0896 20.7937 21.7312 20.4353ZM8.70825 15.5833C4.91695 15.5833 1.83333 12.4997 1.83333 8.7083C1.83333 4.91696 4.91695 1.8333 8.70825 1.8333C12.4996 1.8333 15.5832 4.91696 15.5832 8.7083C15.5832 12.4997 12.4995 15.5833 8.70825 15.5833Z" fill="black"/>
</svg>
