<svg width="27" height="27" viewBox="0 0 27 27" fill="none" xmlns="http://www.w3.org/2000/svg">
<path fill-rule="evenodd" clip-rule="evenodd" d="M26 3C26 4.4865 24.9189 5.72048 23.5 5.95852V20.0415C24.9189 20.2795 26 21.5135 26 23H26.3028V24H25.8293C25.4712 25.0132 24.5842 25.7766 23.5 25.9585V26.0109H22.5V25.9585C21.4158 25.7766 20.5288 25.0132 20.1707 24H6V23H20C20 21.5135 21.0811 20.2795 22.5 20.0415V5.95852C21.0811 5.72048 20 4.4865 20 3C20 1.34315 21.3431 0 23 0C24.6569 0 26 1.34315 26 3ZM2 5.82929C0.834808 5.41746 0 4.30622 0 3C0 1.34315 1.34315 0 3 0C4.65685 0 6 1.34315 6 3C6 4.65685 4.65685 6 3 6V20C4.65685 20 6 21.3431 6 23C6 24.6569 4.65685 26 3 26C1.34315 26 0 24.6569 0 23C0 21.6938 0.834808 20.5825 2 20.1707V5.82929Z" fill="black"/>
</svg>
